<?xml version="1.0" encoding="utf-8"?>
<svg version="1.1" xmlns:xlink="http://www.w3.org/1999/xlink" width="55px" height="28px" xmlns="http://www.w3.org/2000/svg">
  <g transform="matrix(1 0 0 1 -914 -455 )">
    <path d="M 914.5 459  A 3.5 3.5 0 0 1 918 455.5 L 965 455.5  A 3.5 3.5 0 0 1 968.5 459 L 968.5 479  A 3.5 3.5 0 0 1 965 482.5 L 918 482.5  A 3.5 3.5 0 0 1 914.5 479 L 914.5 459  Z " fill-rule="nonzero" fill="#ffffff" stroke="none" />
    <path d="M 914.5 459  A 3.5 3.5 0 0 1 918 455.5 L 965 455.5  A 3.5 3.5 0 0 1 968.5 459 L 968.5 479  A 3.5 3.5 0 0 1 965 482.5 L 918 482.5  A 3.5 3.5 0 0 1 914.5 479 L 914.5 459  Z " stroke-width="1" stroke="#3894df" fill="none" />
  </g>
</svg>